<svg width="170" height="170" viewBox="0 0 170 170" fill="none" xmlns="http://www.w3.org/2000/svg">
<rect width="170" height="170" rx="40" fill="#6C63FF"/>
<path d="M90.246 135.326L41.5751 110.589C38.1132 108.83 36.9664 104.163 39.0189 100.186L70.7533 38.6956C72.8057 34.7187 77.292 32.9147 80.754 34.6742L129.425 59.4105C132.887 61.1701 134.034 65.837 131.981 69.8139L100.247 131.304C98.1943 135.281 93.708 137.085 90.246 135.326Z" fill="#E6E6E6"/>
<path d="M81.4288 124.031L48.3497 107.225C45.1062 105.577 44.0316 101.206 45.9545 97.4817L72.3281 46.3974C74.251 42.6728 78.4542 40.9836 81.6977 42.6314L121.651 62.9295C124.894 64.5774 125.968 68.9479 124.045 72.6724L109.718 100.424C101.153 117.014 95.8763 131.371 81.4288 124.031Z" fill="white"/>
<path d="M97.6145 95.9048L68.7575 81.2477C68.4047 80.9983 68.154 80.6314 68.0514 80.214C67.9487 79.7966 68.0009 79.3564 68.1984 78.974C68.3959 78.5916 68.7255 78.2923 69.1271 78.131C69.5286 77.9696 69.9753 77.9569 70.3855 78.0952L99.2425 92.7523C99.5953 93.0017 99.846 93.3686 99.9486 93.786C100.051 94.2034 99.9991 94.6436 99.8016 95.026C99.6041 95.4084 99.2745 95.7077 98.8729 95.869C98.4714 96.0304 98.0247 96.0431 97.6145 95.9048V95.9048Z" fill="#6C63FF"/>
<path d="M72.5479 90.9004L65.7786 87.3994C65.4159 87.1384 65.1583 86.7544 65.0528 86.3174C64.9473 85.8805 65.001 85.4198 65.204 85.0195C65.407 84.6192 65.7458 84.306 66.1586 84.1371C66.5713 83.9682 67.0305 83.9549 67.4521 84.0996L74.2214 87.6006C74.5841 87.8616 74.8417 88.2456 74.9472 88.6826C75.0527 89.1195 74.999 89.5802 74.796 89.9805C74.593 90.3808 74.2542 90.694 73.8415 90.8629C73.4287 91.0318 72.9696 91.0451 72.5479 90.9004V90.9004Z" fill="#6C63FF"/>
<path d="M80.6582 103.902L62.7436 94.3477C62.3972 94.0907 62.1512 93.7125 62.0504 93.2822C61.9497 92.8519 62.0009 92.3982 62.1948 92.004C62.3887 91.6098 62.7122 91.3014 63.1064 91.135C63.5006 90.9687 63.9391 90.9556 64.3418 91.0981L82.2564 100.652C82.6028 100.909 82.8488 101.288 82.9496 101.718C83.0503 102.148 82.9991 102.602 82.8052 102.996C82.6113 103.39 82.2877 103.699 81.8936 103.865C81.4994 104.031 81.0609 104.044 80.6582 103.902V103.902Z" fill="#6C63FF"/>
<path d="M109.615 73.8995L80.7575 58.4281C80.4047 58.1649 80.154 57.7776 80.0514 57.337C79.9487 56.8964 80.0009 56.4318 80.1984 56.0281C80.3959 55.6244 80.7255 55.3086 81.1271 55.1383C81.5286 54.968 81.9753 54.9545 82.3855 55.1005L111.242 70.5719C111.595 70.8351 111.846 71.2223 111.949 71.663C112.051 72.1036 111.999 72.5682 111.802 72.9719C111.604 73.3756 111.274 73.6914 110.873 73.8617C110.471 74.032 110.025 74.0455 109.615 73.8995V73.8995Z" fill="#6C63FF"/>
<path d="M83.5479 68.9004L76.7786 65.3994C76.4159 65.1384 76.1583 64.7543 76.0528 64.3174C75.9473 63.8805 76.001 63.4198 76.204 63.0195C76.407 62.6192 76.7458 62.306 77.1586 62.1371C77.5713 61.9682 78.0305 61.9549 78.4521 62.0996L85.2214 65.6006C85.5841 65.8616 85.8417 66.2456 85.9472 66.6826C86.0527 67.1195 85.999 67.5802 85.796 67.9805C85.593 68.3808 85.2542 68.694 84.8415 68.8629C84.4287 69.0318 83.9696 69.0451 83.5479 68.9004V68.9004Z" fill="#6C63FF"/>
<path d="M92.5467 80.9019L73.779 71.3477C73.4161 71.0907 73.1584 70.7125 73.0528 70.2822C72.9473 69.8519 73.001 69.3982 73.2041 69.004C73.4072 68.6098 73.7462 68.3014 74.1591 68.135C74.5721 67.9687 75.0314 67.9556 75.4533 68.0981L94.221 77.6523C94.5839 77.9093 94.8416 78.2875 94.9472 78.7178C95.0527 79.1481 94.999 79.6018 94.7959 79.996C94.5928 80.3902 94.2538 80.6986 93.8409 80.865C93.4279 81.0313 92.9686 81.0444 92.5467 80.9019L92.5467 80.9019Z" fill="#6C63FF"/>
</svg>
