<svg width="170" height="170" viewBox="0 0 170 170" fill="none" xmlns="http://www.w3.org/2000/svg">
<rect width="170" height="170" rx="40" fill="#6C63FF"/>
<g filter="url(#filter0_d_126_433)">
<path d="M59.2391 139.165C64.0345 143.961 71.8093 143.961 76.6046 139.165C81.4 134.37 81.4 126.595 76.6046 121.8C71.8093 117.005 64.0345 117.005 59.2391 121.8C54.4438 126.595 54.4438 134.37 59.2391 139.165Z" fill="#F2F2F2"/>
<path d="M75.1363 102.624C73.8525 101.341 72.9569 99.7237 72.558 97.9691C72.1591 96.2146 72.274 94.3978 72.8887 92.7384L90.2836 45.947C90.8598 44.397 91.7507 42.9911 92.9016 41.8157C94.0524 40.6402 95.4389 39.7201 96.9757 39.1119C98.5126 38.5037 100.167 38.2202 101.838 38.2788C103.509 38.3375 105.161 38.737 106.693 39.453C108.224 40.1689 109.602 41.186 110.743 42.4419C111.883 43.6977 112.762 45.1657 113.325 46.7557C113.888 48.3457 114.123 50.024 114.016 51.6875C113.909 53.351 113.463 54.9645 112.703 56.4289L89.7821 100.637C89.126 101.902 88.1775 102.987 87.0126 103.804C85.8477 104.621 84.4989 105.147 83.0746 105.34C81.6503 105.533 80.1901 105.388 78.8115 104.917C77.4328 104.445 76.174 103.66 75.1363 102.624L75.1363 102.624Z" fill="#F2F2F2"/>
</g>
<defs>
<filter id="filter0_d_126_433" x="53.6426" y="38.2715" width="66.3989" height="114.49" filterUnits="userSpaceOnUse" color-interpolation-filters="sRGB">
<feFlood flood-opacity="0" result="BackgroundImageFix"/>
<feColorMatrix in="SourceAlpha" type="matrix" values="0 0 0 0 0 0 0 0 0 0 0 0 0 0 0 0 0 0 127 0" result="hardAlpha"/>
<feOffset dx="2" dy="6"/>
<feGaussianBlur stdDeviation="2"/>
<feComposite in2="hardAlpha" operator="out"/>
<feColorMatrix type="matrix" values="0 0 0 0 0 0 0 0 0 0 0 0 0 0 0 0 0 0 0.25 0"/>
<feBlend mode="normal" in2="BackgroundImageFix" result="effect1_dropShadow_126_433"/>
<feBlend mode="normal" in="SourceGraphic" in2="effect1_dropShadow_126_433" result="shape"/>
</filter>
</defs>
</svg>
