<svg width="170" height="170" viewBox="0 0 170 170" fill="none" xmlns="http://www.w3.org/2000/svg">
<rect width="170" height="170" rx="40" fill="#6C63FF"/>
<g filter="url(#filter0_d_126_445)">
<path d="M137.564 78.0939H126.998C125.354 68.4068 120.281 59.6338 112.705 53.3766C95.2712 38.9767 69.4644 41.4364 55.0645 58.8708C55.0154 58.9264 54.968 58.9836 54.9228 59.0423C53.7722 60.5337 54.0485 62.6756 55.54 63.8263C57.0311 64.977 59.173 64.7007 60.3239 63.2093C66.5793 55.6305 76.0476 50.8076 86.6346 50.8076C102.843 50.8096 116.814 62.2139 120.06 78.0939H110.742C110.343 78.094 109.958 78.2338 109.651 78.4889C108.928 79.0917 108.83 80.167 109.432 80.8908L122.843 96.9897C122.909 97.0686 122.982 97.1414 123.061 97.2072C123.784 97.8104 124.86 97.713 125.463 96.9897L138.874 80.8908C139.129 80.5845 139.269 80.1985 139.269 79.7999C139.27 78.8581 138.506 78.0943 137.564 78.0939V78.0939V78.0939Z" fill="white"/>
<path d="M117.729 106.005C116.238 104.854 114.096 105.131 112.945 106.622C107.983 112.63 101.115 116.759 93.4811 118.321C75.0194 122.101 56.9888 110.199 53.2088 91.7375H62.5271C63.469 91.7371 64.2323 90.9733 64.232 90.0315C64.2317 89.6329 64.0919 89.2469 63.8369 88.9406L50.4256 72.8418C49.8225 72.1184 48.747 72.021 48.0237 72.6242C47.9447 72.69 47.8719 72.7628 47.8062 72.8418L34.3949 88.9406C33.7923 89.6644 33.8903 90.7397 34.6141 91.3425C34.9203 91.5977 35.3061 91.7374 35.7049 91.7375H46.2713C47.9153 101.425 52.9881 110.198 60.5638 116.455C77.9981 130.855 103.805 128.395 118.205 110.961C118.254 110.905 118.301 110.848 118.346 110.789C119.497 109.298 119.221 107.156 117.729 106.005H117.729V106.005Z" fill="white"/>
</g>
<defs>
<filter id="filter0_d_126_445" x="32" y="44" width="113.27" height="91.832" filterUnits="userSpaceOnUse" color-interpolation-filters="sRGB">
<feFlood flood-opacity="0" result="BackgroundImageFix"/>
<feColorMatrix in="SourceAlpha" type="matrix" values="0 0 0 0 0 0 0 0 0 0 0 0 0 0 0 0 0 0 127 0" result="hardAlpha"/>
<feOffset dx="2" dy="6"/>
<feGaussianBlur stdDeviation="2"/>
<feComposite in2="hardAlpha" operator="out"/>
<feColorMatrix type="matrix" values="0 0 0 0 0 0 0 0 0 0 0 0 0 0 0 0 0 0 0.25 0"/>
<feBlend mode="normal" in2="BackgroundImageFix" result="effect1_dropShadow_126_445"/>
<feBlend mode="normal" in="SourceGraphic" in2="effect1_dropShadow_126_445" result="shape"/>
</filter>
</defs>
</svg>
