<svg width="170" height="170" viewBox="0 0 170 170" fill="none" xmlns="http://www.w3.org/2000/svg">
<rect width="170" height="170" rx="40" fill="#6C63FF"/>
<path d="M118.812 77.0939C115.218 62.3082 101.957 51.8095 86.6346 51.8076L118.812 77.0939ZM118.812 77.0939H110.742H110.742C110.109 77.0941 109.497 77.3159 109.011 77.7205C107.863 78.6768 107.708 80.3826 108.664 81.5306L108.664 81.5308L122.075 97.6298L122.075 97.6301C122.18 97.7552 122.295 97.871 122.421 97.9759M118.812 77.0939L54.131 58.4314C54.1866 58.3593 54.2442 58.2895 54.3034 58.2219C69.057 40.3726 95.4862 37.8573 113.342 52.6056L112.705 53.3766L113.342 52.6056C120.885 58.8359 126.006 67.5008 127.834 77.0939M122.421 97.9759C122.421 97.9756 122.421 97.9754 122.421 97.9751L123.061 97.2072L122.421 97.9759ZM122.421 97.9759C123.569 98.9321 125.274 98.7773 126.231 97.6301L126.231 97.6298L139.643 81.5308L139.643 81.5307C140.047 81.045 140.269 80.4328 140.269 79.8006V79.8002C140.27 78.3061 139.059 77.0945 137.565 77.0939L136.564 77.0935V77.0939M136.564 77.0939H127.834M136.564 77.0939V78.0939H137.564M136.564 77.0939H137.564V78.0939M127.834 77.0939C127.886 77.3707 127.936 77.6483 127.984 77.9266L126.998 78.0939V77.0939H127.834ZM137.564 78.0939C138.506 78.0943 139.27 78.8581 139.269 79.7999C139.269 80.1985 139.129 80.5845 138.874 80.8908L125.463 96.9897L137.564 78.0939ZM109.432 80.8908L122.843 96.9897L109.432 80.8908ZM54.1309 58.4317C52.6431 60.3604 53.0005 63.13 54.929 64.6179L54.1309 58.4317ZM54.9291 64.618C56.853 66.1026 59.6141 65.7505 61.1048 63.8341C67.1781 56.4827 76.3635 51.8076 86.6344 51.8076L54.9291 64.618Z" fill="white" stroke="white" stroke-width="2"/>
<mask id="path-3-outside-1_126_445" maskUnits="userSpaceOnUse" x="32" y="70.2285" width="90" height="58" fill="black">
<rect fill="white" x="32" y="70.2285" width="90" height="58"/>
<path d="M117.729 106.005C116.238 104.854 114.096 105.131 112.945 106.622C107.983 112.63 101.115 116.759 93.4811 118.321C75.0194 122.101 56.9888 110.199 53.2088 91.7375H62.5271C63.469 91.7371 64.2323 90.9733 64.232 90.0315C64.2317 89.6329 64.0919 89.2469 63.8369 88.9406L50.4256 72.8418C49.8225 72.1184 48.747 72.021 48.0237 72.6242C47.9447 72.69 47.8719 72.7628 47.8062 72.8418L34.3949 88.9406C33.7923 89.6644 33.8903 90.7397 34.6141 91.3425C34.9203 91.5977 35.3061 91.7374 35.7049 91.7375H46.2713C47.9153 101.425 52.9881 110.198 60.5638 116.455C77.9981 130.855 103.805 128.395 118.205 110.961C118.254 110.905 118.301 110.848 118.346 110.789C119.497 109.298 119.221 107.156 117.729 106.005H117.729V106.005Z"/>
</mask>
<path d="M117.729 106.005C116.238 104.854 114.096 105.131 112.945 106.622C107.983 112.63 101.115 116.759 93.4811 118.321C75.0194 122.101 56.9888 110.199 53.2088 91.7375H62.5271C63.469 91.7371 64.2323 90.9733 64.232 90.0315C64.2317 89.6329 64.0919 89.2469 63.8369 88.9406L50.4256 72.8418C49.8225 72.1184 48.747 72.021 48.0237 72.6242C47.9447 72.69 47.8719 72.7628 47.8062 72.8418L34.3949 88.9406C33.7923 89.6644 33.8903 90.7397 34.6141 91.3425C34.9203 91.5977 35.3061 91.7374 35.7049 91.7375H46.2713C47.9153 101.425 52.9881 110.198 60.5638 116.455C77.9981 130.855 103.805 128.395 118.205 110.961C118.254 110.905 118.301 110.848 118.346 110.789C119.497 109.298 119.221 107.156 117.729 106.005H117.729V106.005Z" fill="white"/>
<path d="M117.729 106.005H119.729V105.022L118.951 104.422L117.729 106.005ZM112.945 106.622L114.487 107.896L114.509 107.87L114.529 107.844L112.945 106.622ZM93.4811 118.321L93.0799 116.362L93.0799 116.362L93.4811 118.321ZM53.2088 91.7375V89.7375H50.7579L51.2495 92.1387L53.2088 91.7375ZM62.5271 91.7375L62.5271 93.7375L62.528 93.7375L62.5271 91.7375ZM64.232 90.0315L66.232 90.0309L66.232 90.0301L64.232 90.0315ZM63.8369 88.9406L65.3738 87.6609L65.3735 87.6605L63.8369 88.9406ZM50.4256 72.8418L51.9623 71.5616L51.9617 71.561L50.4256 72.8418ZM48.0237 72.6242L49.303 74.1616L49.3048 74.1601L48.0237 72.6242ZM47.8062 72.8418L49.3428 74.1219L49.343 74.1216L47.8062 72.8418ZM34.3949 88.9406L32.8583 87.6605L32.8579 87.6609L34.3949 88.9406ZM34.6141 91.3425L35.8943 89.806L35.894 89.8057L34.6141 91.3425ZM35.7049 91.7375L35.7043 93.7375H35.7049V91.7375ZM46.2713 91.7375L48.2431 91.4029L47.9605 89.7375H46.2713V91.7375ZM60.5638 116.455L61.8375 114.913L61.8375 114.913L60.5638 116.455ZM118.205 110.961L116.705 109.638L116.684 109.662L116.663 109.687L118.205 110.961ZM118.346 110.789L116.763 109.567L116.762 109.568L118.346 110.789ZM117.729 106.005V104.005H111.863L116.508 107.589L117.729 106.005ZM117.729 106.005V108.005H119.729V106.005H117.729ZM118.951 104.422C116.585 102.596 113.187 103.035 111.362 105.401L114.529 107.844C115.005 107.227 115.891 107.113 116.508 107.589L118.951 104.422ZM111.403 105.349C106.732 111.004 100.266 114.891 93.0799 116.362L93.8822 120.281C101.963 118.626 109.235 114.256 114.487 107.896L111.403 105.349ZM93.0799 116.362C75.7004 119.92 58.7266 108.716 55.1682 91.3363L51.2495 92.1387C55.251 111.683 74.3385 124.282 93.8822 120.281L93.0799 116.362ZM53.2088 93.7375H62.5271V89.7375H53.2088V93.7375ZM62.528 93.7375C64.5743 93.7366 66.2326 92.0772 66.232 90.0309L62.232 90.0321C62.2319 89.8694 62.3637 89.7376 62.5263 89.7375L62.528 93.7375ZM66.232 90.0301C66.2314 89.1644 65.9277 88.3262 65.3738 87.6609L62.2999 90.2204C62.2561 90.1677 62.232 90.1015 62.232 90.0328L66.232 90.0301ZM65.3735 87.6605L51.9623 71.5616L48.889 74.1219L62.3002 90.2208L65.3735 87.6605ZM51.9617 71.561C50.6512 69.9892 48.3144 69.7774 46.7427 71.0884L49.3048 74.1601C49.1796 74.2645 48.9937 74.2476 48.8895 74.1225L51.9617 71.561ZM46.7445 71.0869C46.5718 71.2306 46.4128 71.3896 46.2693 71.5619L49.343 74.1216C49.3311 74.136 49.3177 74.1494 49.303 74.1616L46.7445 71.0869ZM46.2695 71.5616L32.8583 87.6605L35.9316 90.2208L49.3428 74.1219L46.2695 71.5616ZM32.8579 87.6609C31.5488 89.2332 31.7615 91.5696 33.3342 92.8793L35.894 89.8057C36.0191 89.9099 36.0358 90.0955 35.9319 90.2203L32.8579 87.6609ZM33.3338 92.879C33.9993 93.4336 34.838 93.7373 35.7043 93.7375L35.7055 89.7375C35.7742 89.7375 35.8412 89.7617 35.8943 89.806L33.3338 92.879ZM35.7049 93.7375H46.2713V89.7375H35.7049V93.7375ZM44.2995 92.0722C46.0238 102.233 51.3444 111.434 59.2902 117.997L61.8375 114.913C54.6318 108.961 49.8068 100.617 48.2431 91.4029L44.2995 92.0722ZM59.2902 117.997C77.5761 133.1 104.644 130.52 119.747 112.234L116.663 109.687C102.966 126.27 78.4201 128.609 61.8375 114.913L59.2902 117.997ZM119.705 112.284C119.785 112.193 119.86 112.102 119.93 112.01L116.762 109.568C116.742 109.594 116.723 109.617 116.705 109.638L119.705 112.284ZM119.93 112.011C121.755 109.645 121.317 106.247 118.951 104.422L116.508 107.589C117.125 108.065 117.239 108.951 116.763 109.567L119.93 112.011ZM117.729 108.005H117.729V104.005H117.729V108.005ZM119.729 106.005V106.005H115.729V106.005H119.729Z" fill="white" mask="url(#path-3-outside-1_126_445)"/>
</svg>
