<svg width="170" height="170" viewBox="0 0 170 170" fill="none" xmlns="http://www.w3.org/2000/svg">
<rect width="170" height="170" rx="40" fill="#6C63FF"/>
<path d="M60.9431 99.3166L55.1607 81.5495L68.1526 78.6264L68.049 90.9721L86.1266 107.766C87.0368 107.696 87.9509 107.887 88.7575 108.317C89.564 108.747 90.2282 109.397 90.669 110.188C91.1098 110.979 91.3082 111.876 91.2399 112.77C91.1717 113.664 90.8398 114.517 90.2847 115.224C89.7296 115.932 88.9753 116.463 88.1137 116.753C87.2522 117.044 86.3206 117.081 85.4326 116.86C84.5446 116.639 83.7386 116.17 83.1128 115.509C82.487 114.849 82.0684 114.026 81.9081 113.141L60.9431 99.3166Z" fill="white"/>
<path d="M52.5823 77.2281C49.3 81.8612 60.9646 98.7019 60.9646 98.7019C61.5328 97.5243 66.9649 110.748 67.8747 109.967C70.4605 107.747 74.5083 101.563 76.7583 101.287C78.0451 101.129 73.7741 92.3561 73.7741 92.3561C73.7741 92.3561 71.8221 87.1757 69.1734 80.5581C68.4607 78.6739 67.2637 76.9937 65.6938 75.6738C64.1239 74.354 62.2321 73.4374 60.1947 73.0095C60.1947 73.0095 55.8647 72.5951 52.5823 77.2281Z" fill="white"/>
<path d="M59 63C64.5229 63 69 58.7467 69 53.5C69 48.2533 64.5229 44 59 44C53.4772 44 49 48.2533 49 53.5C49 58.7467 53.4772 63 59 63Z" fill="white"/>
<path d="M64.1363 69.6854C66.2613 70.9201 67.5325 73.1887 68.2622 75.4971C69.6132 79.771 70.4264 84.1898 70.6838 88.6559L71.4545 102.027L81 130.496C72.7273 137.338 41.6313 132.051 41.6313 132.051C41.6313 132.051 40.6768 131.74 41.6313 130.807C42.5858 129.874 43.5151 130.701 42.5606 129.768C41.606 128.835 42.2641 129.874 42.5822 128.942C42.9004 128.009 42.5822 128.631 42.2641 128.32C41.9459 128.009 44.7273 125.21 44.7273 125.21L42.1818 108.868L39 75.9048C42.8182 71.2402 50.4971 68.4905 50.4971 68.4905L52.4812 65L62.4018 65.7757L64.1363 69.6854Z" fill="white"/>
<path d="M67.2959 48.5714C68.0586 49.1271 68.6236 49.9025 68.9114 50.7884C69.022 49.3406 69.0291 47.8872 68.9325 46.4385C68.8168 45.4205 68.0832 45.1915 67.2336 44.9262C66.4665 44.6865 65.5988 44.4157 65.3654 43.4275C62.2808 40.4961 56.9112 40.6439 53.2363 41.6665C51.2143 42.2291 50.0507 42.952 49.9467 43.3755L49.9251 43.4627L49.8429 43.5028C48.2843 44.2641 47.9809 46.6682 48.0009 48.5509C48.0389 52.098 49.2926 56.1266 49.9989 56.4539C50.0363 56.4712 50.0457 56.4645 50.0619 56.4513C51.1254 55.621 52.4229 56.5144 52.9931 57C53.3294 54.7954 54.4123 52.7645 56.0687 51.2316C57.7252 49.6988 59.8597 48.7524 62.1314 48.5436C62.8733 48.4735 63.6092 48.353 64.3339 48.1828C64.7015 48.0899 65.0794 48.0415 65.4591 48.0386C66.1127 48.0289 66.7537 48.2148 67.2959 48.5714V48.5714Z" fill="#2F2E41"/>
<path d="M99.4724 128.887L118.094 110.15L123 95.1642L115.105 92C111.194 95.909 107.168 107.876 107.168 107.876L94.4581 124.778C94.3566 124.815 94.2555 124.855 94.1558 124.902C93.5706 125.175 93.0666 125.594 92.6925 126.117C92.3183 126.64 92.0867 127.25 92.02 127.888C91.9533 128.526 92.0538 129.17 92.3117 129.758C92.5696 130.346 92.9763 130.858 93.4923 131.245C94.0084 131.632 94.6165 131.88 95.2577 131.966C95.899 132.052 96.5518 131.973 97.153 131.736C97.7543 131.499 98.2836 131.112 98.6899 130.613C99.0962 130.114 99.3657 129.519 99.4724 128.887Z" fill="white"/>
<path d="M108 93.251L117.035 96L117.069 95.9932C120.39 95.3149 123.017 89.5099 124.636 84.7595C125.168 83.1927 125.115 81.4716 124.488 79.9442C123.86 78.4168 122.704 77.1971 121.254 76.5316V76.5316C120.182 76.0482 119.002 75.8902 117.848 76.0752C116.694 76.2602 115.613 76.781 114.726 77.5787L110.221 81.6586L108 93.251Z" fill="white"/>
<path d="M131.474 134L131.53 133.923C134.519 129.81 130.024 119.926 129.346 118.494L132.201 117.583L131.558 112.21L131.254 109.815L133.436 107.67L133.442 107.616L134.698 96.8136L136.524 89.6388C137.212 86.9264 137.153 84.0829 136.354 81.4002C135.555 78.7175 134.044 76.2922 131.976 74.3733L127.755 70.4612L122.626 63H114.354L111.518 68.2665C108.768 68.8912 106.328 70.4445 104.623 72.6557C102.919 74.8669 102.057 77.596 102.189 80.3674L102.832 94.1798L100.315 111.377L100.314 114.49L97.482 117.584L98.1004 120.623L95.9451 121.531L94.9934 125.897C94.5996 126.408 92 129.815 92 130.747C92 130.887 92.105 131.022 92.3304 131.172C94.1019 132.351 103.894 134.755 108.227 133.05C112.844 131.236 131.194 133.958 131.379 133.986L131.474 134Z" fill="white"/>
<path d="M117.5 59C123.851 59 129 54.299 129 48.5C129 42.701 123.851 38 117.5 38C111.149 38 106 42.701 106 48.5C106 54.299 111.149 59 117.5 59Z" fill="white"/>
<path d="M115.947 58.9876C117.653 58.9711 119.355 58.8168 121.034 58.5264C122.696 58.1644 126.363 55.4835 127.362 53.8997C128.104 52.723 128.55 50.9028 128.793 49.5832C129.122 47.8368 129.058 46.0446 128.608 44.3228C128.157 42.601 127.329 40.9878 126.176 39.5879C125.732 39.0014 125.129 38.5393 124.43 38.2505C124.368 38.2293 124.304 38.2108 124.24 38.1952C123.227 37.9694 122.308 37.4624 121.602 36.7393C121.465 36.5929 121.317 36.456 121.159 36.3297C120.366 35.7299 119.435 35.3159 118.441 35.1215C116.835 34.7569 114.538 35.2138 111.614 36.4808C110.145 37.1173 108.514 36.9398 107.257 36.7139C107.187 36.7028 107.114 36.7094 107.047 36.7329C106.98 36.7564 106.921 36.7961 106.875 36.848C106.357 37.3331 105.663 37.6144 104.933 37.6355C104.487 37.6649 104.034 38.2613 103.489 39.0378C103.365 39.2141 103.22 39.4198 103.116 39.5453L103.095 39.3096L102.849 39.5791C102.463 40.0028 102.197 40.5119 102.075 41.0591C101.953 41.6063 101.98 42.1737 102.153 42.7085C102.325 43.2433 102.638 43.7281 103.062 44.1178C103.486 44.5075 104.008 44.7894 104.578 44.9372C105.031 45.0393 105.493 45.0974 105.958 45.1107C106.24 45.1278 106.531 45.1454 106.811 45.1843C107.711 45.3357 108.553 45.7051 109.257 46.2563C109.96 46.8075 110.501 47.5218 110.825 48.3293C110.901 48.516 111.022 48.6835 111.178 48.8189C111.334 48.9543 111.521 49.0541 111.724 49.1104C111.927 49.1668 112.141 49.1782 112.35 49.1439C112.559 49.1096 112.756 49.0304 112.927 48.9125C113.212 48.6916 113.549 48.5391 113.909 48.4679C114.269 48.3967 114.643 48.409 114.997 48.5037C115.305 48.656 115.548 48.9038 115.686 49.2056C115.853 49.5415 116.122 49.8228 116.458 50.0137C117.605 50.538 117.75 52.9812 117.399 55.0293C117.061 57.0036 116.325 58.4438 115.609 58.5315C115.059 58.599 114.996 58.6377 114.959 58.731L114.925 58.8145L114.99 58.8904C115.297 58.9875 115.624 59.0206 115.947 58.9876V58.9876Z" fill="#2F2E41"/>
<path d="M112.392 78.9599L104.498 75.7562C100.62 79.7036 96.676 91.7936 96.676 91.7936L84.0983 108.867C83.4818 109.096 82.9374 109.484 82.5199 109.993C82.1024 110.502 81.8265 111.113 81.72 111.765C81.6136 112.417 81.6802 113.087 81.9134 113.707C82.1465 114.327 82.5379 114.876 83.048 115.298C83.5582 115.72 84.1692 116 84.8195 116.111C85.4698 116.221 86.1365 116.158 86.7525 115.927C87.3684 115.697 87.9119 115.307 88.3282 114.797C88.7445 114.287 89.0189 113.675 89.1238 113.023L107.588 94.1002L112.392 78.9599Z" fill="white"/>
<path d="M111.985 96L120.511 86.8115L120.984 80.3008C121.072 79.0223 120.789 77.7455 120.166 76.6146C119.543 75.4837 118.605 74.5439 117.458 73.9012V73.9012C115.898 73.0402 114.057 72.7842 112.309 73.1848C110.561 73.5855 109.035 74.6129 108.04 76.0595C105.028 80.4489 101.787 86.3836 103.454 89.7296L103.471 89.7635L111.985 96Z" fill="white"/>
<path d="M66.8818 118.963L53.3551 113.263C53.1897 113.166 53.0722 113.023 53.0241 112.861C52.976 112.699 53.0004 112.528 53.093 112.379C53.1856 112.23 53.3401 112.114 53.5283 112.051C53.7165 111.988 53.9259 111.983 54.1182 112.037L67.6449 117.737C67.8103 117.834 67.9278 117.977 67.9759 118.139C68.024 118.301 67.9996 118.472 67.907 118.621C67.8144 118.77 67.6599 118.886 67.4717 118.949C67.2835 119.012 67.0741 119.017 66.8818 118.963V118.963Z" fill="white"/>
<path d="M55.0192 117.957L52.3115 116.457C52.1664 116.345 52.0633 116.18 52.0211 115.993C51.9789 115.806 52.0004 115.608 52.0816 115.437C52.1628 115.265 52.2983 115.131 52.4634 115.059C52.6285 114.986 52.8122 114.981 52.9809 115.043L55.6886 116.543C55.8336 116.655 55.9367 116.82 55.9789 117.007C56.0211 117.194 55.9996 117.392 55.9184 117.563C55.8372 117.735 55.7017 117.869 55.5366 117.941C55.3715 118.014 55.1878 118.019 55.0192 117.957V117.957Z" fill="white"/>
<path d="M58.8848 122.962L50.3541 119.288C50.1892 119.189 50.072 119.043 50.024 118.878C49.976 118.712 50.0004 118.538 50.0928 118.386C50.1851 118.235 50.3392 118.116 50.5269 118.052C50.7146 117.988 50.9234 117.983 51.1151 118.038L59.6459 121.712C59.8108 121.811 59.928 121.957 59.976 122.122C60.024 122.288 59.9996 122.462 59.9072 122.614C59.8149 122.765 59.6608 122.884 59.4731 122.948C59.2854 123.012 59.0766 123.017 58.8848 122.962V122.962Z" fill="white"/>
<path d="M61.9563 109.958L49.3314 103.443C49.177 103.333 49.0674 103.17 49.0225 102.984C48.9776 102.798 49.0004 102.603 49.0868 102.433C49.1732 102.263 49.3174 102.13 49.4931 102.058C49.6688 101.987 49.8642 101.981 50.0437 102.042L62.6686 108.557C62.823 108.667 62.9326 108.83 62.9775 109.016C63.0224 109.202 62.9996 109.397 62.9132 109.567C62.8268 109.737 62.6826 109.87 62.5069 109.942C62.3312 110.013 62.1358 110.019 61.9563 109.958V109.958Z" fill="white"/>
<path d="M57.7739 101.943L54.3893 99.9425C54.208 99.7934 54.0792 99.5739 54.0264 99.3242C53.9737 99.0746 54.0005 98.8113 54.102 98.5826C54.2035 98.3538 54.3729 98.1749 54.5793 98.0784C54.7857 97.9819 55.0152 97.9742 55.2261 98.0569L58.6107 100.057C58.792 100.207 58.9208 100.426 58.9736 100.676C59.0263 100.925 58.9995 101.189 58.898 101.417C58.7965 101.646 58.6271 101.825 58.4207 101.922C58.2144 102.018 57.9848 102.026 57.7739 101.943V101.943Z" fill="white"/>
<path d="M61.8848 105.962L53.3541 102.288C53.1892 102.189 53.072 102.043 53.024 101.878C52.976 101.712 53.0004 101.538 53.0928 101.386C53.1851 101.235 53.3392 101.116 53.5269 101.052C53.7146 100.988 53.9234 100.983 54.1151 101.038L62.6459 104.712C62.8108 104.811 62.928 104.957 62.976 105.122C63.024 105.288 62.9996 105.462 62.9072 105.614C62.8149 105.765 62.6608 105.884 62.4731 105.948C62.2854 106.012 62.0766 106.017 61.8849 105.962L61.8848 105.962Z" fill="white"/>
<path d="M44.8312 113.393L40 95.4395L52.9104 93L52.2161 105.323L69.1792 122.758C70.0773 122.721 70.9666 122.946 71.7388 123.405C72.5109 123.864 73.1326 124.538 73.5279 125.343C73.9232 126.149 74.0752 127.052 73.9652 127.943C73.8552 128.833 73.488 129.672 72.9085 130.358C72.3289 131.044 71.562 131.546 70.7012 131.804C69.8404 132.063 68.923 132.065 68.0608 131.812C67.1986 131.559 66.4288 131.06 65.8454 130.378C65.2619 129.696 64.89 128.858 64.775 127.969L44.8312 113.393Z" fill="white"/>
<path d="M38.7589 74.2844C34.1451 77.8614 40.0669 97.8692 40.0669 97.8692C40.9838 96.8811 42.0492 111.485 43.1699 110.988C46.355 109.574 52.1929 104.701 54.4435 105.098C55.7305 105.325 54.3821 95.4385 54.3821 95.4385C54.3821 95.4385 54.1341 89.7696 53.6679 82.482C53.575 80.4193 52.9522 78.4132 51.8575 76.6504C50.7628 74.8877 49.2317 73.4256 47.4067 72.4003C47.4067 72.4003 43.3728 70.7075 38.7589 74.2844Z" fill="white"/>
</svg>
