<svg width="198" height="40" viewBox="0 0 198 40" fill="none" xmlns="http://www.w3.org/2000/svg">
<path d="M33.5021 36.74C32.9421 37.3 32.1221 37.72 31.0421 38C30.0021 38.32 28.7421 38.48 27.2621 38.48C25.7821 38.48 24.3821 38.26 23.0621 37.82C21.7421 37.38 20.6621 36.32 19.8221 34.64L13.8821 22.52C13.2821 21.28 12.7421 20.12 12.2621 19.04C11.7821 17.92 11.2621 16.64 10.7021 15.2L10.3421 15.26C10.5021 17.42 10.5821 19.62 10.5821 21.86C10.6221 24.1 10.6421 26.3 10.6421 28.46V37.76C10.2021 37.88 9.52211 38 8.60211 38.12C7.72211 38.24 6.84211 38.3 5.96211 38.3C5.08211 38.3 4.30211 38.24 3.62211 38.12C2.94211 38 2.38211 37.76 1.94211 37.4C1.50211 37.04 1.16211 36.56 0.92211 35.96C0.68211 35.32 0.56211 34.5 0.56211 33.5V3.5C1.12211 2.7 1.98211 2.1 3.14211 1.7C4.30211 1.3 5.54211 1.1 6.86211 1.1C8.34211 1.1 9.74211 1.34 11.0621 1.82C12.4221 2.26 13.5021 3.3 14.3021 4.94L20.3021 17.06C20.9021 18.3 21.4421 19.48 21.9221 20.6C22.4021 21.68 22.9221 22.94 23.4821 24.38L23.7821 24.32C23.6221 22.16 23.5221 20 23.4821 17.84C23.4421 15.68 23.4221 13.52 23.4221 11.36V1.64C23.8621 1.52 24.5221 1.4 25.4021 1.28C26.3221 1.16 27.2221 1.1 28.1021 1.1C29.8621 1.1 31.2021 1.42 32.1221 2.06C33.0421 2.66 33.5021 3.94 33.5021 5.9V36.74ZM49.0248 2.72C49.7048 2.32 50.7248 1.94 52.0848 1.58C53.4848 1.22 54.8848 1.04 56.2848 1.04C58.2848 1.04 60.0448 1.34 61.5648 1.94C63.1248 2.5 64.1248 3.4 64.5648 4.64C65.2848 6.72 66.0648 9.14 66.9048 11.9C67.7448 14.66 68.5848 17.52 69.4248 20.48C70.2648 23.4 71.0848 26.3 71.8848 29.18C72.6848 32.02 73.3848 34.54 73.9848 36.74C73.5048 37.3 72.7848 37.74 71.8248 38.06C70.8648 38.42 69.7248 38.6 68.4048 38.6C67.4448 38.6 66.6248 38.52 65.9448 38.36C65.3048 38.2 64.7648 37.96 64.3248 37.64C63.9248 37.32 63.5848 36.9 63.3048 36.38C63.0648 35.86 62.8448 35.26 62.6448 34.58L61.5648 30.44H50.7048C50.3848 31.64 50.0648 32.88 49.7448 34.16C49.4248 35.44 49.1048 36.68 48.7848 37.88C48.2248 38.08 47.6248 38.24 46.9848 38.36C46.3848 38.52 45.6448 38.6 44.7648 38.6C42.7248 38.6 41.2048 38.26 40.2048 37.58C39.2448 36.86 38.7648 35.88 38.7648 34.64C38.7648 34.08 38.8448 33.52 39.0048 32.96C39.1648 32.4 39.3448 31.74 39.5448 30.98C39.8248 29.9 40.2048 28.56 40.6848 26.96C41.2048 25.36 41.7648 23.64 42.3648 21.8C42.9648 19.92 43.6048 18 44.2848 16.04C44.9648 14.08 45.6048 12.24 46.2048 10.52C46.8048 8.76 47.3448 7.2 47.8248 5.84C48.3448 4.48 48.7448 3.44 49.0248 2.72ZM56.2248 10.46C55.6648 12.14 55.0248 14.02 54.3048 16.1C53.6248 18.14 53.0048 20.22 52.4448 22.34H59.8848C59.3248 20.18 58.7448 18.08 58.1448 16.04C57.5848 13.96 57.0648 12.1 56.5848 10.46H56.2248ZM89.342 30.2C89.782 30.28 90.322 30.36 90.962 30.44C91.602 30.48 92.202 30.5 92.762 30.5C94.122 30.5 95.362 30.3 96.482 29.9C97.642 29.5 98.622 28.88 99.422 28.04C100.262 27.2 100.902 26.12 101.342 24.8C101.822 23.44 102.062 21.82 102.062 19.94C102.062 16.34 101.222 13.64 99.542 11.84C97.862 10 95.622 9.08 92.822 9.08C92.262 9.08 91.682 9.1 91.082 9.14C90.522 9.18 89.942 9.24 89.342 9.32V30.2ZM92.702 38.96C92.022 38.96 91.242 38.94 90.362 38.9C89.482 38.86 88.562 38.78 87.602 38.66C86.682 38.54 85.742 38.38 84.782 38.18C83.862 38.02 83.002 37.78 82.202 37.46C80.002 36.62 78.902 35.16 78.902 33.08V5.06C78.902 4.22 79.122 3.58 79.562 3.14C80.042 2.66 80.682 2.28 81.482 2C83.202 1.44 85.022 1.08 86.942 0.919998C88.862 0.719998 90.582 0.619998 92.102 0.619998C95.222 0.619998 98.042 0.999998 100.562 1.76C103.122 2.52 105.302 3.7 107.102 5.3C108.942 6.86 110.362 8.84 111.362 11.24C112.362 13.64 112.862 16.48 112.862 19.76C112.862 22.96 112.382 25.76 111.422 28.16C110.462 30.52 109.082 32.52 107.282 34.16C105.522 35.76 103.402 36.96 100.922 37.76C98.442 38.56 95.702 38.96 92.702 38.96Z" fill="#6C63FF"/>
<path d="M117.063 19.76C117.063 16.64 117.543 13.88 118.503 11.48C119.503 9.08 120.843 7.08 122.523 5.48C124.243 3.84 126.243 2.6 128.523 1.76C130.843 0.919999 133.343 0.5 136.023 0.5C138.703 0.5 141.183 0.919999 143.463 1.76C145.783 2.6 147.803 3.84 149.523 5.48C151.243 7.08 152.583 9.08 153.543 11.48C154.543 13.88 155.043 16.64 155.043 19.76C155.043 22.88 154.563 25.66 153.603 28.1C152.643 30.5 151.303 32.52 149.583 34.16C147.903 35.76 145.903 36.98 143.583 37.82C141.263 38.66 138.743 39.08 136.023 39.08C133.303 39.08 130.783 38.66 128.463 37.82C126.143 36.94 124.143 35.68 122.463 34.04C120.783 32.4 119.463 30.38 118.503 27.98C117.543 25.58 117.063 22.84 117.063 19.76ZM127.863 19.76C127.863 23.4 128.603 26.12 130.083 27.92C131.563 29.72 133.543 30.62 136.023 30.62C138.543 30.62 140.543 29.72 142.023 27.92C143.503 26.12 144.243 23.4 144.243 19.76C144.243 16.16 143.503 13.46 142.023 11.66C140.583 9.86 138.603 8.96 136.083 8.96C133.603 8.96 131.603 9.86 130.083 11.66C128.603 13.42 127.863 16.12 127.863 19.76ZM159.25 19.76C159.25 16.64 159.73 13.88 160.69 11.48C161.69 9.08 163.03 7.08 164.71 5.48C166.43 3.84 168.43 2.6 170.71 1.76C173.03 0.919999 175.53 0.5 178.21 0.5C180.89 0.5 183.37 0.919999 185.65 1.76C187.97 2.6 189.99 3.84 191.71 5.48C193.43 7.08 194.77 9.08 195.73 11.48C196.73 13.88 197.23 16.64 197.23 19.76C197.23 22.88 196.75 25.66 195.79 28.1C194.83 30.5 193.49 32.52 191.77 34.16C190.09 35.76 188.09 36.98 185.77 37.82C183.45 38.66 180.93 39.08 178.21 39.08C175.49 39.08 172.97 38.66 170.65 37.82C168.33 36.94 166.33 35.68 164.65 34.04C162.97 32.4 161.65 30.38 160.69 27.98C159.73 25.58 159.25 22.84 159.25 19.76ZM170.05 19.76C170.05 23.4 170.79 26.12 172.27 27.92C173.75 29.72 175.73 30.62 178.21 30.62C180.73 30.62 182.73 29.72 184.21 27.92C185.69 26.12 186.43 23.4 186.43 19.76C186.43 16.16 185.69 13.46 184.21 11.66C182.77 9.86 180.79 8.96 178.27 8.96C175.79 8.96 173.79 9.86 172.27 11.66C170.79 13.42 170.05 16.12 170.05 19.76Z" fill="#09CF83"/>
</svg>
