<svg width="149" height="30" viewBox="0 0 149 30" fill="none" xmlns="http://www.w3.org/2000/svg">
<path d="M25.6266 28.055C25.2066 28.475 24.5916 28.79 23.7816 29C23.0016 29.24 22.0566 29.36 20.9466 29.36C19.8366 29.36 18.7866 29.195 17.7966 28.865C16.8066 28.535 15.9966 27.74 15.3666 26.48L10.9116 17.39C10.4616 16.46 10.0566 15.59 9.69658 14.78C9.33658 13.94 8.94658 12.98 8.52658 11.9L8.25658 11.945C8.37658 13.565 8.43658 15.215 8.43658 16.895C8.46658 18.575 8.48158 20.225 8.48158 21.845V28.82C8.15158 28.91 7.64158 29 6.95158 29.09C6.29158 29.18 5.63158 29.225 4.97158 29.225C4.31158 29.225 3.72658 29.18 3.21658 29.09C2.70658 29 2.28658 28.82 1.95658 28.55C1.62658 28.28 1.37158 27.92 1.19158 27.47C1.01158 26.99 0.921582 26.375 0.921582 25.625V3.125C1.34158 2.525 1.98658 2.075 2.85658 1.775C3.72658 1.475 4.65658 1.325 5.64658 1.325C6.75658 1.325 7.80658 1.505 8.79658 1.865C9.81658 2.195 10.6266 2.975 11.2266 4.205L15.7266 13.295C16.1766 14.225 16.5816 15.11 16.9416 15.95C17.3016 16.76 17.6916 17.705 18.1116 18.785L18.3366 18.74C18.2166 17.12 18.1416 15.5 18.1116 13.88C18.0816 12.26 18.0666 10.64 18.0666 9.02V1.73C18.3966 1.64 18.8916 1.55 19.5516 1.46C20.2416 1.37 20.9166 1.325 21.5766 1.325C22.8966 1.325 23.9016 1.565 24.5916 2.045C25.2816 2.495 25.6266 3.455 25.6266 4.925V28.055ZM37.2686 2.54C37.7786 2.24 38.5436 1.955 39.5636 1.685C40.6136 1.415 41.6636 1.28 42.7136 1.28C44.2136 1.28 45.5336 1.505 46.6736 1.955C47.8436 2.375 48.5936 3.05 48.9236 3.98C49.4636 5.54 50.0486 7.355 50.6786 9.425C51.3086 11.495 51.9386 13.64 52.5686 15.86C53.1986 18.05 53.8136 20.225 54.4136 22.385C55.0136 24.515 55.5386 26.405 55.9886 28.055C55.6286 28.475 55.0886 28.805 54.3686 29.045C53.6486 29.315 52.7936 29.45 51.8036 29.45C51.0836 29.45 50.4686 29.39 49.9586 29.27C49.4786 29.15 49.0736 28.97 48.7436 28.73C48.4436 28.49 48.1886 28.175 47.9786 27.785C47.7986 27.395 47.6336 26.945 47.4836 26.435L46.6736 23.33H38.5286C38.2886 24.23 38.0486 25.16 37.8086 26.12C37.5686 27.08 37.3286 28.01 37.0886 28.91C36.6686 29.06 36.2186 29.18 35.7386 29.27C35.2886 29.39 34.7336 29.45 34.0736 29.45C32.5436 29.45 31.4036 29.195 30.6536 28.685C29.9336 28.145 29.5736 27.41 29.5736 26.48C29.5736 26.06 29.6336 25.64 29.7536 25.22C29.8736 24.8 30.0086 24.305 30.1586 23.735C30.3686 22.925 30.6536 21.92 31.0136 20.72C31.4036 19.52 31.8236 18.23 32.2736 16.85C32.7236 15.44 33.2036 14 33.7136 12.53C34.2236 11.06 34.7036 9.68 35.1536 8.39C35.6036 7.07 36.0086 5.9 36.3686 4.88C36.7586 3.86 37.0586 3.08 37.2686 2.54ZM42.6686 8.345C42.2486 9.605 41.7686 11.015 41.2286 12.575C40.7186 14.105 40.2536 15.665 39.8336 17.255H45.4136C44.9936 15.635 44.5586 14.06 44.1086 12.53C43.6886 10.97 43.2986 9.575 42.9386 8.345H42.6686ZM67.5065 23.15C67.8365 23.21 68.2415 23.27 68.7215 23.33C69.2015 23.36 69.6515 23.375 70.0715 23.375C71.0915 23.375 72.0215 23.225 72.8615 22.925C73.7315 22.625 74.4665 22.16 75.0665 21.53C75.6965 20.9 76.1765 20.09 76.5065 19.1C76.8665 18.08 77.0465 16.865 77.0465 15.455C77.0465 12.755 76.4165 10.73 75.1565 9.38C73.8965 8 72.2165 7.31 70.1165 7.31C69.6965 7.31 69.2615 7.325 68.8115 7.355C68.3915 7.385 67.9565 7.43 67.5065 7.49V23.15ZM70.0265 29.72C69.5165 29.72 68.9315 29.705 68.2715 29.675C67.6115 29.645 66.9215 29.585 66.2015 29.495C65.5115 29.405 64.8065 29.285 64.0865 29.135C63.3965 29.015 62.7515 28.835 62.1515 28.595C60.5015 27.965 59.6765 26.87 59.6765 25.31V4.295C59.6765 3.665 59.8415 3.185 60.1715 2.855C60.5315 2.495 61.0115 2.21 61.6115 2C62.9015 1.58 64.2665 1.31 65.7065 1.19C67.1465 1.04 68.4365 0.964999 69.5765 0.964999C71.9165 0.964999 74.0315 1.25 75.9215 1.82C77.8415 2.39 79.4765 3.275 80.8265 4.475C82.2065 5.645 83.2715 7.13 84.0215 8.93C84.7715 10.73 85.1465 12.86 85.1465 15.32C85.1465 17.72 84.7865 19.82 84.0665 21.62C83.3465 23.39 82.3115 24.89 80.9615 26.12C79.6415 27.32 78.0515 28.22 76.1915 28.82C74.3315 29.42 72.2765 29.72 70.0265 29.72Z" fill="#19BCFF"/>
<path d="M88.2972 15.32C88.2972 12.98 88.6572 10.91 89.3772 9.11C90.1272 7.31 91.1322 5.81 92.3922 4.61C93.6822 3.38 95.1822 2.45 96.8922 1.82C98.6322 1.19 100.507 0.875 102.517 0.875C104.527 0.875 106.387 1.19 108.097 1.82C109.837 2.45 111.352 3.38 112.642 4.61C113.932 5.81 114.937 7.31 115.657 9.11C116.407 10.91 116.782 12.98 116.782 15.32C116.782 17.66 116.422 19.745 115.702 21.575C114.982 23.375 113.977 24.89 112.687 26.12C111.427 27.32 109.927 28.235 108.187 28.865C106.447 29.495 104.557 29.81 102.517 29.81C100.477 29.81 98.5872 29.495 96.8472 28.865C95.1072 28.205 93.6072 27.26 92.3472 26.03C91.0872 24.8 90.0972 23.285 89.3772 21.485C88.6572 19.685 88.2972 17.63 88.2972 15.32ZM96.3972 15.32C96.3972 18.05 96.9522 20.09 98.0622 21.44C99.1722 22.79 100.657 23.465 102.517 23.465C104.407 23.465 105.907 22.79 107.017 21.44C108.127 20.09 108.682 18.05 108.682 15.32C108.682 12.62 108.127 10.595 107.017 9.245C105.937 7.895 104.452 7.22 102.562 7.22C100.702 7.22 99.2022 7.895 98.0622 9.245C96.9522 10.565 96.3972 12.59 96.3972 15.32ZM119.938 15.32C119.938 12.98 120.298 10.91 121.018 9.11C121.768 7.31 122.773 5.81 124.033 4.61C125.323 3.38 126.823 2.45 128.533 1.82C130.273 1.19 132.148 0.875 134.158 0.875C136.168 0.875 138.028 1.19 139.738 1.82C141.478 2.45 142.993 3.38 144.283 4.61C145.573 5.81 146.578 7.31 147.298 9.11C148.048 10.91 148.423 12.98 148.423 15.32C148.423 17.66 148.063 19.745 147.343 21.575C146.623 23.375 145.618 24.89 144.328 26.12C143.068 27.32 141.568 28.235 139.828 28.865C138.088 29.495 136.198 29.81 134.158 29.81C132.118 29.81 130.228 29.495 128.488 28.865C126.748 28.205 125.248 27.26 123.988 26.03C122.728 24.8 121.738 23.285 121.018 21.485C120.298 19.685 119.938 17.63 119.938 15.32ZM128.038 15.32C128.038 18.05 128.593 20.09 129.703 21.44C130.813 22.79 132.298 23.465 134.158 23.465C136.048 23.465 137.548 22.79 138.658 21.44C139.768 20.09 140.323 18.05 140.323 15.32C140.323 12.62 139.768 10.595 138.658 9.245C137.578 7.895 136.093 7.22 134.203 7.22C132.343 7.22 130.843 7.895 129.703 9.245C128.593 10.565 128.038 12.59 128.038 15.32Z" fill="#09CF83"/>
</svg>
