<svg width="87" height="84" viewBox="0 0 87 84" fill="none" xmlns="http://www.w3.org/2000/svg">
<path d="M46.3728 80.0957C68.4642 80.0957 86.3728 62.1871 86.3728 40.0957C86.3728 18.0043 68.4642 0.0957031 46.3728 0.0957031C24.2814 0.0957031 6.3728 18.0043 6.3728 40.0957C6.3728 62.1871 24.2814 80.0957 46.3728 80.0957Z" fill="#F2F2F2"/>
<path d="M40.3728 83.0957C62.4642 83.0957 80.3728 65.1871 80.3728 43.0957C80.3728 21.0043 62.4642 3.0957 40.3728 3.0957C18.2814 3.0957 0.372803 21.0043 0.372803 43.0957C0.372803 65.1871 18.2814 83.0957 40.3728 83.0957Z" fill="#F2F2F2"/>
<path d="M40.1128 68.0157C52.8461 68.0157 63.1685 57.6933 63.1685 44.96C63.1685 32.2267 52.8461 21.9043 40.1128 21.9043C27.3795 21.9043 17.0571 32.2267 17.0571 44.96C17.0571 57.6933 27.3795 68.0157 40.1128 68.0157Z" fill="#A0616A"/>
<path d="M58.0796 64.8166L48.9396 66.5666C48.9396 66.5666 57.4396 52.8465 56.9396 46.5665C56.4396 40.2865 49.5996 38.0365 49.5996 38.0365C49.5996 38.0365 45.8096 38.8565 41.8196 39.3165C41.3417 37.971 40.7215 36.6804 39.9696 35.4666C39.8216 37.0336 39.1279 38.4989 38.0096 39.6066C36.5473 39.7321 35.0747 39.5621 33.6796 39.1066C32.0996 38.3866 32.1295 37.1366 32.6495 35.9666C27.4997 36.3916 22.4741 37.7717 17.8296 40.0365C17.5996 36.9665 17.717 33.8803 18.1796 30.8365C18.3996 30.7765 18.6196 30.7066 18.8396 30.6366C20.2025 30.2054 21.5164 29.6322 22.7596 28.9265C21.3761 28.7429 20.0834 28.135 19.0596 27.1865C19.8996 24.7265 21.2396 22.5966 23.3496 21.5566C25.3853 20.5609 27.6112 20.0144 29.8765 19.9541C32.1419 19.8937 34.3937 20.3208 36.4796 21.2065C36.4796 21.2065 31.5896 17.6365 33.3896 16.1765C33.5096 16.2965 33.6296 16.4065 33.7596 16.5165C33.9296 16.6565 34.1196 16.8065 34.2996 16.9465C35.4096 17.8465 37.0696 16.5766 37.2896 15.2166C37.3132 15.0448 37.3467 14.8745 37.3896 14.7065C37.4196 14.5665 37.4596 14.4265 37.4996 14.2965C37.5335 14.1812 37.5736 14.0677 37.6196 13.9565C40.9496 13.1565 51.0196 16.4065 54.8896 23.5665C54.8896 23.5665 81.9396 36.5666 58.0796 64.8166Z" fill="#3F3D56"/>
<path opacity="0.3" d="M40.3728 73.0957C56.9413 73.0957 70.3728 59.6642 70.3728 43.0957C70.3728 26.5272 56.9413 13.0957 40.3728 13.0957C23.8043 13.0957 10.3728 26.5272 10.3728 43.0957C10.3728 59.6642 23.8043 73.0957 40.3728 73.0957Z" fill="#6C63FF"/>
</svg>
